<svg version="1.1" id="Layer_1" xmlns="http://www.w3.org/2000/svg" xmlns:xlink="http://www.w3.org/1999/xlink" x="0px" y="0px"
	 width="100%" viewBox="0 0 5rem 5rem" enable-background="new 0 0 512 512" xml:space="preserve">
<path fill="#000000" opacity="1.000000" stroke="none" 
	d="
M513.000000,195.000000 
	C513.000000,301.307495 513.000000,407.114990 513.000000,512.961243 
	C342.400818,512.961243 171.801651,512.961243 1.101233,512.961243 
	C1.101233,342.442535 1.101233,171.884979 1.101233,1.163717 
	C171.666534,1.163717 342.333252,1.163717 513.000000,1.163717 
	C513.000000,65.531647 513.000000,130.015823 513.000000,195.000000 
M407.663116,437.827698 
	C415.589630,430.236298 423.544586,422.674133 431.410095,415.020111 
	C432.514282,413.945648 433.180756,412.421326 434.668365,410.822357 
	C435.960083,409.530090 437.491730,408.401947 438.505615,406.919647 
	C446.669556,394.983856 454.735931,382.981323 463.151428,370.351135 
	C472.375702,353.459137 479.687683,335.814575 484.789581,316.621674 
	C484.870789,315.799896 484.838226,314.947571 485.049774,314.160828 
	C490.970612,292.142029 492.790070,269.712036 491.972626,246.118637 
	C490.329315,233.980225 489.103271,221.767578 486.960052,209.718079 
	C481.696472,180.125702 470.049408,153.047760 453.534454,128.018066 
	C439.099457,106.140732 421.616974,87.198128 400.814636,71.082161 
	C381.510681,56.127007 360.520172,44.513237 337.745087,36.079056 
	C306.530731,24.519608 274.157135,20.485497 240.162674,22.049927 
	C239.082458,22.364571 238.021637,22.807730 236.919052,22.974012 
	C225.633148,24.676027 214.161407,25.580563 203.099594,28.212532 
	C191.843109,30.890823 180.988434,35.257965 169.200851,38.986584 
	C155.786240,45.954887 142.371628,52.923191 128.318192,60.182793 
	C118.864395,67.415520 109.410599,74.648247 99.344643,82.165634 
	C93.854134,87.653664 88.136101,92.936279 82.940857,98.690872 
	C78.290108,103.842339 74.215416,109.513870 69.264999,115.240585 
	C68.292931,116.541000 67.182152,117.760628 66.370384,119.154419 
	C58.848587,132.069229 51.378338,145.014053 43.264313,158.307648 
	C41.422844,162.822311 39.195927,167.222305 37.812580,171.873230 
	C33.750904,185.528931 30.024454,199.284332 26.007204,213.812363 
	C25.714529,214.581680 25.266443,215.328613 25.152040,216.123596 
	C22.675928,233.329300 21.167879,250.593521 22.028305,268.882019 
	C23.251034,285.169525 25.120695,301.351532 29.981400,317.863831 
	C34.573063,330.701172 38.438976,343.858307 43.922043,356.302887 
	C52.723156,376.278290 64.686134,394.360657 79.169746,410.832977 
	C91.217484,424.534943 104.312561,436.978516 119.115578,447.610901 
	C133.867508,458.206604 149.522186,467.215759 166.375854,474.078857 
	C185.263733,481.770264 204.708450,487.372040 225.854950,489.974213 
	C240.236572,490.593811 254.618195,491.213409 269.863281,491.973083 
	C274.592743,491.629639 279.406250,491.731567 284.035614,490.857819 
	C297.063751,488.398926 310.016083,485.538635 323.736572,482.725067 
	C341.520966,476.732391 359.192383,470.483368 375.534760,459.992371 
	C375.693817,459.940094 375.852875,459.887848 376.537659,459.879456 
	C376.733032,459.598297 376.928436,459.317169 377.832275,458.987122 
	C387.569977,452.028748 397.307678,445.070374 407.663116,437.827698 
z"/>
<path fill="#4EBAA3" opacity="1.000000" stroke="none" 
	d="
M169.957825,38.885586 
	C180.988434,35.257965 191.843109,30.890823 203.099594,28.212532 
	C214.161407,25.580563 225.633148,24.676027 236.919052,22.974012 
	C238.021637,22.807730 239.082458,22.364571 240.735855,22.391350 
	C242.975739,24.088018 244.704391,25.374418 246.299133,26.809628 
	C257.042633,36.478485 267.728851,46.211155 278.488525,55.861923 
	C297.036682,72.498512 315.667572,89.043083 334.182861,105.716049 
	C349.244843,119.279305 364.133850,133.034622 379.198456,146.594940 
	C397.717102,163.264389 416.391510,179.760925 434.899048,196.442657 
	C450.325012,210.346878 465.568787,224.453140 480.983093,238.370407 
	C484.406525,241.461380 488.207031,244.134705 491.833954,247.000305 
	C492.790070,269.712036 490.970612,292.142029 485.049774,314.160828 
	C484.838226,314.947571 484.870789,315.799896 484.095032,316.790283 
	C481.855164,316.058472 480.095551,315.394897 478.797882,314.220734 
	C466.845001,303.405426 455.022430,292.446106 443.065308,281.635590 
	C419.647766,260.463684 396.192871,239.332947 372.686157,218.260193 
	C369.373779,215.290802 365.682831,212.743759 362.113708,209.588715 
	C364.549957,201.807495 361.064331,191.672424 354.399475,187.148727 
	C346.843994,182.020508 339.027863,181.858093 331.027405,185.717163 
	C329.907532,183.040329 329.338623,180.176956 327.603577,178.582977 
	C312.073425,164.315826 296.328613,150.282562 280.665924,136.159439 
	C269.441315,126.038177 258.268494,115.859428 247.031754,105.751709 
	C231.599655,91.870155 216.363190,77.757385 200.586990,64.277275 
	C191.116791,56.185383 183.653809,45.500023 171.392349,40.840588 
	C170.758133,40.599575 170.429001,39.555679 169.957825,38.885586 
z"/>
<path fill="#39AFBA" opacity="1.000000" stroke="none" 
	d="
M26.166721,213.000702 
	C30.024454,199.284332 33.750904,185.528931 37.812580,171.873230 
	C39.195927,167.222305 41.422844,162.822311 43.864395,158.312714 
	C61.417160,173.487274 78.417824,188.603607 95.308395,203.841965 
	C110.721817,217.747665 125.954262,231.854401 141.414093,245.707779 
	C144.548828,248.516785 148.343399,250.589493 151.910034,253.352356 
	C153.510925,255.825638 154.780090,258.202148 156.599121,260.032074 
	C178.307861,281.870422 200.084869,303.641022 221.897186,325.376007 
	C223.381271,326.854858 225.291428,327.906067 227.179123,329.303589 
	C227.596832,329.639465 227.851379,329.809143 228.087524,329.964752 
	C228.056595,329.969482 228.078033,329.910675 228.190948,330.227386 
	C228.708618,331.063141 229.041000,331.665558 229.528656,332.089081 
	C242.193237,343.088104 254.975220,353.954376 267.522583,365.085205 
	C279.337952,375.566620 290.871918,386.364594 302.596619,396.949188 
	C318.514069,411.318787 334.395020,425.731720 350.491669,439.898743 
	C358.445496,446.899109 366.847565,453.390137 375.046844,460.111633 
	C359.192383,470.483368 341.520966,476.732391 323.326843,482.433167 
	C322.014008,480.810852 321.326660,479.245117 320.173370,478.187500 
	C311.474884,470.210175 302.677216,462.341095 293.925201,454.422028 
	C282.706482,444.270905 271.521423,434.082550 260.285797,423.950226 
	C244.237808,409.478058 228.149292,395.050812 212.093002,380.587799 
	C201.098846,370.684570 190.146027,360.735474 179.146179,350.838593 
	C163.452530,336.718536 147.707855,322.655151 132.032394,308.515015 
	C120.427589,298.046814 108.932396,287.457123 97.327187,276.989380 
	C81.527679,262.738495 65.665337,248.557266 49.839115,234.335983 
	C41.937798,227.235916 34.056866,220.113174 26.166721,213.000702 
z"/>
<path fill="#54BD9D" opacity="1.000000" stroke="none" 
	d="
M491.903290,246.559479 
	C488.207031,244.134705 484.406525,241.461380 480.983093,238.370407 
	C465.568787,224.453140 450.325012,210.346878 434.899048,196.442657 
	C416.391510,179.760925 397.717102,163.264389 379.198456,146.594940 
	C364.133850,133.034622 349.244843,119.279305 334.182861,105.716049 
	C315.667572,89.043083 297.036682,72.498512 278.488525,55.861923 
	C267.728851,46.211155 257.042633,36.478485 246.299133,26.809628 
	C244.704391,25.374418 242.975739,24.088018 241.154343,22.449924 
	C274.157135,20.485497 306.530731,24.519608 337.745087,36.079056 
	C360.520172,44.513237 381.510681,56.127007 400.814636,71.082161 
	C421.616974,87.198128 439.099457,106.140732 453.534454,128.018066 
	C470.049408,153.047760 481.696472,180.125702 486.960052,209.718079 
	C489.103271,221.767578 490.329315,233.980225 491.903290,246.559479 
z"/>
<path fill="#34ADC0" opacity="1.000000" stroke="none" 
	d="
M26.086960,213.406525 
	C34.056866,220.113174 41.937798,227.235916 49.839115,234.335983 
	C65.665337,248.557266 81.527679,262.738495 97.327187,276.989380 
	C108.932396,287.457123 120.427589,298.046814 132.032394,308.515015 
	C147.707855,322.655151 163.452530,336.718536 179.146179,350.838593 
	C190.146027,360.735474 201.098846,370.684570 212.093002,380.587799 
	C228.149292,395.050812 244.237808,409.478058 260.285797,423.950226 
	C271.521423,434.082550 282.706482,444.270905 293.925201,454.422028 
	C302.677216,462.341095 311.474884,470.210175 320.173370,478.187500 
	C321.326660,479.245117 322.014008,480.810852 322.957703,482.488922 
	C310.016083,485.538635 297.063751,488.398926 284.035614,490.857819 
	C279.406250,491.731567 274.592743,491.629639 269.391235,491.556458 
	C267.610138,489.275116 266.589233,487.092529 264.942932,485.599670 
	C257.064636,478.455536 248.951843,471.570648 241.041534,464.461029 
	C217.180557,443.015228 193.375351,421.507385 169.547440,400.024811 
	C149.300278,381.770508 129.015884,363.557343 108.813614,345.253479 
	C86.391800,324.938660 64.099281,304.480835 41.629211,284.219757 
	C35.362198,278.568817 28.666197,273.393677 22.166992,268.000275 
	C21.167879,250.593521 22.675928,233.329300 25.152040,216.123596 
	C25.266443,215.328613 25.714529,214.581680 26.086960,213.406525 
z"/>
<path fill="#49B8A9" opacity="1.000000" stroke="none" 
	d="
M169.579346,38.936085 
	C170.429001,39.555679 170.758133,40.599575 171.392349,40.840588 
	C183.653809,45.500023 191.116791,56.185383 200.586990,64.277275 
	C216.363190,77.757385 231.599655,91.870155 247.031754,105.751709 
	C258.268494,115.859428 269.441315,126.038177 280.665924,136.159439 
	C296.328613,150.282562 312.073425,164.315826 327.603577,178.582977 
	C329.338623,180.176956 329.907532,183.040329 330.886932,186.025909 
	C328.528656,188.632965 326.185181,190.410416 324.093170,192.446304 
	C316.057587,200.266464 308.102600,208.169434 299.830536,215.859863 
	C287.250214,204.507172 274.971039,193.320511 262.659302,182.169800 
	C251.824844,172.357071 240.965363,162.571838 230.096420,152.797287 
	C214.413162,138.693207 198.718079,124.602242 183.015289,110.519905 
	C171.022263,99.764488 158.884567,89.166222 147.055939,78.233307 
	C140.754898,72.409409 134.973145,66.023651 128.957016,59.891495 
	C142.371628,52.923191 155.786240,45.954887 169.579346,38.936085 
z"/>
<path fill="#42B4B0" opacity="1.000000" stroke="none" 
	d="
M69.886559,114.955948 
	C74.215416,109.513870 78.290108,103.842339 82.940857,98.690872 
	C88.136101,92.936279 93.854134,87.653664 99.670364,82.406448 
	C101.889359,85.440773 103.335297,88.719963 105.751648,90.945572 
	C117.600212,101.858864 129.752945,112.440926 141.709579,123.238152 
	C153.669632,134.038452 165.457367,145.029892 177.441742,155.802826 
	C195.599289,172.124954 213.867645,188.323776 232.077515,204.587753 
	C246.073471,217.088150 260.051849,229.608215 273.904236,242.422012 
	C264.219086,252.163315 254.667755,261.602142 244.829468,270.859314 
	C237.114410,264.037415 229.646347,257.441254 222.267319,250.746948 
	C210.335419,239.922211 198.529312,228.958099 186.548248,218.188400 
	C168.395706,201.871185 150.081512,185.733658 131.943466,169.400452 
	C116.516663,155.508713 101.324280,141.356033 85.852196,127.515526 
	C80.815620,123.010063 75.224205,119.124847 69.886559,114.955948 
z"/>
<path fill="#31ABC3" opacity="1.000000" stroke="none" 
	d="
M22.097647,268.441162 
	C28.666197,273.393677 35.362198,278.568817 41.629211,284.219757 
	C64.099281,304.480835 86.391800,324.938660 108.813614,345.253479 
	C129.015884,363.557343 149.300278,381.770508 169.547440,400.024811 
	C193.375351,421.507385 217.180557,443.015228 241.041534,464.461029 
	C248.951843,471.570648 257.064636,478.455536 264.942932,485.599670 
	C266.589233,487.092529 267.610138,489.275116 268.959534,491.486450 
	C254.618195,491.213409 240.236572,490.593811 225.304077,489.581482 
	C222.240112,487.748108 219.466812,486.622650 217.265228,484.804779 
	C211.761795,480.260468 206.479889,475.443970 201.177429,470.660950 
	C189.827499,460.422913 178.549026,450.105621 167.189453,439.878387 
	C151.634918,425.874298 136.001541,411.957733 120.460320,397.938995 
	C108.740036,387.366852 97.135132,376.666931 85.436157,366.071045 
	C68.691254,350.905029 51.922668,335.765076 35.114952,320.668793 
	C33.552040,319.265015 31.635572,318.254852 29.883274,317.061920 
	C25.120695,301.351532 23.251034,285.169525 22.097647,268.441162 
z"/>
<path fill="#49B8A9" opacity="1.000000" stroke="none" 
	d="
M362.167114,210.001221 
	C365.682831,212.743759 369.373779,215.290802 372.686157,218.260193 
	C396.192871,239.332947 419.647766,260.463684 443.065308,281.635590 
	C455.022430,292.446106 466.845001,303.405426 478.797882,314.220734 
	C480.095551,315.394897 481.855164,316.058472 483.765808,317.000000 
	C479.687683,335.814575 472.375702,353.459137 462.672852,370.574371 
	C459.325897,368.561340 456.315521,366.483215 453.615356,364.059540 
	C445.094574,356.411194 436.731262,348.587677 428.231659,340.915466 
	C412.345428,326.575745 396.415405,312.284454 380.485260,297.993469 
	C372.088715,290.460846 363.574768,283.057312 355.256622,275.439575 
	C345.716644,266.702911 336.334869,257.793457 327.024963,248.652130 
	C333.393982,242.113037 339.659576,235.917450 345.840240,229.638229 
	C351.829315,223.553635 358.631714,218.131012 362.167114,210.001221 
z"/>
<path fill="#45B6AC" opacity="1.000000" stroke="none" 
	d="
M274.038055,242.119522 
	C260.051849,229.608215 246.073471,217.088150 232.077515,204.587753 
	C213.867645,188.323776 195.599289,172.124954 177.441742,155.802826 
	C165.457367,145.029892 153.669632,134.038452 141.709579,123.238152 
	C129.752945,112.440926 117.600212,101.858864 105.751648,90.945572 
	C103.335297,88.719963 101.889359,85.440773 99.976440,82.264114 
	C109.410599,74.648247 118.864395,67.415520 128.637604,60.037140 
	C134.973145,66.023651 140.754898,72.409409 147.055939,78.233307 
	C158.884567,89.166222 171.022263,99.764488 183.015289,110.519905 
	C198.718079,124.602242 214.413162,138.693207 230.096420,152.797287 
	C240.965363,162.571838 251.824844,172.357071 262.659302,182.169800 
	C274.971039,193.320511 287.250214,204.507172 299.689453,216.166595 
	C291.236267,225.143158 282.637146,233.631332 274.038055,242.119522 
z"/>
<path fill="#44B5AE" opacity="1.000000" stroke="none" 
	d="
M326.884399,248.959076 
	C336.334869,257.793457 345.716644,266.702911 355.256622,275.439575 
	C363.574768,283.057312 372.088715,290.460846 380.485260,297.993469 
	C396.415405,312.284454 412.345428,326.575745 428.231659,340.915466 
	C436.731262,348.587677 445.094574,356.411194 453.615356,364.059540 
	C456.315521,366.483215 459.325897,368.561340 462.513245,370.898407 
	C454.735931,382.981323 446.669556,394.983856 438.505615,406.919647 
	C437.491730,408.401947 435.960083,409.530090 434.217529,410.625854 
	C432.737000,408.383728 432.158051,405.867249 430.598907,404.374695 
	C424.117798,398.170349 417.357758,392.256104 410.669769,386.269318 
	C392.093933,369.641113 373.451813,353.086578 354.933838,336.394287 
	C339.499054,322.481232 324.316681,308.286224 308.779205,294.490143 
	C303.828613,290.094421 299.426117,284.447906 292.093567,283.580566 
	C303.779602,271.838135 315.332001,260.398590 326.884399,248.959076 
z"/>
<path fill="#3EB2B5" opacity="1.000000" stroke="none" 
	d="
M69.575775,115.098267 
	C75.224205,119.124847 80.815620,123.010063 85.852196,127.515526 
	C101.324280,141.356033 116.516663,155.508713 131.943466,169.400452 
	C150.081512,185.733658 168.395706,201.871185 186.548248,218.188400 
	C198.529312,228.958099 210.335419,239.922211 222.267319,250.746948 
	C229.646347,257.441254 237.114410,264.037415 244.688660,271.166016 
	C241.825317,274.761749 238.815857,277.869049 235.199005,281.603485 
	C233.974365,280.035950 233.081802,278.616486 231.927460,277.457825 
	C216.646942,262.120758 201.313660,246.836288 186.031418,231.500916 
	C181.491287,226.944992 175.714508,224.289017 169.699707,225.219940 
	C156.258560,227.300201 147.800812,238.647507 151.833771,253.001633 
	C148.343399,250.589493 144.548828,248.516785 141.414093,245.707779 
	C125.954262,231.854401 110.721817,217.747665 95.308395,203.841965 
	C78.417824,188.603607 61.417160,173.487274 44.178795,158.133972 
	C51.378338,145.014053 58.848587,132.069229 66.370384,119.154419 
	C67.182152,117.760628 68.292931,116.541000 69.575775,115.098267 
z"/>
<path fill="#3DB2B5" opacity="1.000000" stroke="none" 
	d="
M375.290802,460.052002 
	C366.847565,453.390137 358.445496,446.899109 350.491669,439.898743 
	C334.395020,425.731720 318.514069,411.318787 302.596619,396.949188 
	C290.871918,386.364594 279.337952,375.566620 267.522583,365.085205 
	C254.975220,353.954376 242.193237,343.088104 229.528656,332.089081 
	C229.041000,331.665558 228.708618,331.063141 228.609894,330.265839 
	C237.733917,332.560242 245.213226,330.211090 251.640686,323.864899 
	C257.059479,318.514648 262.520020,313.206726 268.113098,308.191376 
	C270.763947,311.367706 273.014313,314.506744 275.807068,317.050140 
	C287.723816,327.902802 299.837891,338.538452 311.808807,349.332184 
	C323.412506,359.794830 334.877960,370.410919 346.495728,380.857758 
	C365.030701,397.524750 383.690918,414.052979 402.152802,430.800110 
	C404.260345,432.711914 405.437042,435.649841 407.045349,438.112000 
	C397.307678,445.070374 387.569977,452.028748 377.284027,459.132477 
	C376.481537,459.446930 376.240265,459.632843 376.011932,459.835571 
	C375.852875,459.887848 375.693817,459.940094 375.290802,460.052002 
z"/>
<path fill="#40B3B2" opacity="1.000000" stroke="none" 
	d="
M407.354248,437.969849 
	C405.437042,435.649841 404.260345,432.711914 402.152802,430.800110 
	C383.690918,414.052979 365.030701,397.524750 346.495728,380.857758 
	C334.877960,370.410919 323.412506,359.794830 311.808807,349.332184 
	C299.837891,338.538452 287.723816,327.902802 275.807068,317.050140 
	C273.014313,314.506744 270.763947,311.367706 268.246582,307.888733 
	C276.139404,299.477692 284.049683,291.680603 291.959930,283.883484 
	C299.426117,284.447906 303.828613,290.094421 308.779205,294.490143 
	C324.316681,308.286224 339.499054,322.481232 354.933838,336.394287 
	C373.451813,353.086578 392.093933,369.641113 410.669769,386.269318 
	C417.357758,392.256104 424.117798,398.170349 430.598907,404.374695 
	C432.158051,405.867249 432.737000,408.383728 433.908264,410.767273 
	C433.180756,412.421326 432.514282,413.945648 431.410095,415.020111 
	C423.544586,422.674133 415.589630,430.236298 407.354248,437.969849 
z"/>
<path fill="#2FAAC5" opacity="1.000000" stroke="none" 
	d="
M29.932339,317.462891 
	C31.635572,318.254852 33.552040,319.265015 35.114952,320.668793 
	C51.922668,335.765076 68.691254,350.905029 85.436157,366.071045 
	C97.135132,376.666931 108.740036,387.366852 120.460320,397.938995 
	C136.001541,411.957733 151.634918,425.874298 167.189453,439.878387 
	C178.549026,450.105621 189.827499,460.422913 201.177429,470.660950 
	C206.479889,475.443970 211.761795,480.260468 217.265228,484.804779 
	C219.466812,486.622650 222.240112,487.748108 224.876343,489.511169 
	C204.708450,487.372040 185.263733,481.770264 166.375854,474.078857 
	C149.522186,467.215759 133.867508,458.206604 119.115578,447.610901 
	C104.312561,436.978516 91.217484,424.534943 79.169746,410.832977 
	C64.686134,394.360657 52.723156,376.278290 43.922043,356.302887 
	C38.438976,343.858307 34.573063,330.701172 29.932339,317.462891 
z"/>
<path fill="#39AFBA" opacity="1.000000" stroke="none" 
	d="
M376.274780,459.857513 
	C376.240265,459.632843 376.481537,459.446930 376.929810,459.156921 
	C376.928436,459.317169 376.733032,459.598297 376.274780,459.857513 
z"/>
<path fill="#000000" opacity="1.000000" stroke="none" 
	d="
M292.093567,283.580566 
	C284.049683,291.680603 276.139404,299.477692 268.095612,307.577393 
	C262.520020,313.206726 257.059479,318.514648 251.640686,323.864899 
	C245.213226,330.211090 237.733917,332.560242 228.496964,329.949127 
	C228.078033,329.910675 228.056595,329.969482 227.994904,329.713806 
	C227.623291,329.357452 227.313354,329.256805 227.003433,329.156158 
	C225.291428,327.906067 223.381271,326.854858 221.897186,325.376007 
	C200.084869,303.641022 178.307861,281.870422 156.599121,260.032074 
	C154.780090,258.202148 153.510925,255.825638 151.910034,253.352356 
	C147.800812,238.647507 156.258560,227.300201 169.699707,225.219940 
	C175.714508,224.289017 181.491287,226.944992 186.031418,231.500916 
	C201.313660,246.836288 216.646942,262.120758 231.927460,277.457825 
	C233.081802,278.616486 233.974365,280.035950 235.199005,281.603485 
	C238.815857,277.869049 241.825317,274.761749 244.975616,271.347687 
	C254.667755,261.602142 264.219086,252.163315 273.904236,242.422012 
	C282.637146,233.631332 291.236267,225.143158 299.976440,216.348251 
	C308.102600,208.169434 316.057587,200.266464 324.093170,192.446304 
	C326.185181,190.410416 328.528656,188.632965 330.897095,186.428040 
	C339.027863,181.858093 346.843994,182.020508 354.399475,187.148727 
	C361.064331,191.672424 364.549957,201.807495 362.113708,209.588715 
	C358.631714,218.131012 351.829315,223.553635 345.840240,229.638229 
	C339.659576,235.917450 333.393982,242.113037 327.024963,248.652130 
	C315.332001,260.398590 303.779602,271.838135 292.093567,283.580566 
z"/>
<path fill="#3DB2B5" opacity="1.000000" stroke="none" 
	d="
M227.179123,329.303589 
	C227.313354,329.256805 227.623291,329.357452 228.025818,329.709045 
	C227.851379,329.809143 227.596832,329.639465 227.179123,329.303589 
z"/>
</svg>